<?xml version="1.0" standalone="no"?>
<!DOCTYPE svg PUBLIC "-//W3C//DTD SVG 20010904//EN"
 "http://www.w3.org/TR/2001/REC-SVG-20010904/DTD/svg10.dtd">
<svg version="1.0" xmlns="http://www.w3.org/2000/svg"
 width="1000.000000pt" height="1000.000000pt" viewBox="0 0 1000.000000 1000.000000"
 preserveAspectRatio="xMidYMid meet">

<g transform="translate(0.000000,1000.000000) scale(0.100000,-0.100000)"
fill="#000000" stroke="none">
<path d="M4921 9828 c-249 -633 -283 -726 -311 -867 -30 -143 -30 -146 -30
-488 l0 -343 -435 0 c-428 0 -435 0 -435 -20 0 -17 -7 -20 -40 -20 -33 0 -40
3 -40 20 0 20 -7 20 -790 20 l-790 0 0 -325 0 -325 -305 0 -305 0 0 -170 0
-170 30 0 c17 0 30 -4 30 -10 0 -5 -13 -10 -30 -10 l-30 0 0 -255 0 -255 330
0 330 0 0 -130 0 -130 -60 0 -60 0 0 -115 0 -115 165 0 165 0 0 -30 0 -30 -75
0 -75 0 0 -91 0 -90 -32 3 c-30 3 -33 6 -33 36 l0 32 -327 0 -328 0 0 -85 c0
-50 -4 -85 -10 -85 -6 0 -10 -40 -10 -100 0 -60 4 -100 10 -100 6 0 10 -35 10
-85 l0 -85 150 0 150 0 0 -495 0 -495 65 0 65 0 0 -70 0 -70 -80 0 -80 0 0
-213 0 -212 318 -318 317 -317 457 0 c400 0 463 2 498 16 35 14 69 16 213 12
130 -4 184 -2 219 9 41 12 50 11 82 -4 34 -16 43 -16 186 7 163 26 159 26 433
-22 l57 -10 0 -62 c0 -33 25 -205 56 -381 l57 -320 70 -147 c53 -112 75 -148
89 -148 10 0 18 -4 18 -10 0 -5 6 -10 13 -10 8 0 18 -10 24 -22 6 -13 48 -66
95 -118 61 -68 94 -116 118 -170 42 -93 188 -259 241 -275 21 -6 35 -17 38
-30 2 -11 23 -43 47 -71 l44 -51 0 -194 0 -194 43 -75 c37 -66 52 -81 132
-137 174 -122 178 -127 126 -182 -45 -48 -47 -66 -15 -132 l28 -59 211 0 211
0 47 48 c26 26 47 57 47 67 0 11 41 72 91 135 99 127 154 227 169 309 6 29 10
123 10 208 l0 155 115 134 c63 73 115 140 115 149 0 10 9 15 29 15 24 0 86 59
435 416 l406 416 0 358 0 359 -32 3 c-29 3 -33 7 -33 31 1 23 -3 27 -27 27
-28 0 -28 0 -28 70 l0 70 60 0 60 0 0 58 0 57 125 63 125 62 438 2 c240 1 392
4 336 5 l-100 4 0 249 1 250 -80 1 c-44 1 -109 5 -145 9 -43 4 18 7 183 8
l247 2 0 270 0 270 30 0 30 0 0 -77 0 -78 207 2 207 2 83 83 83 83 0 119 0
118 -82 84 -82 84 -208 0 -208 0 0 -70 0 -70 -160 0 -160 0 0 30 0 30 70 0 70
0 0 180 0 180 85 0 85 0 0 260 0 260 -502 2 -503 3 -3 23 c-3 21 0 22 62 22
l66 0 0 55 0 55 118 0 117 0 -2 82 -1 83 -41 3 -41 3 0 105 0 104 -75 0 -75 0
0 180 0 180 118 0 117 0 0 92 c0 83 -2 94 -20 103 -12 6 -20 21 -20 35 0 14 8
29 20 35 19 9 20 20 20 158 l0 147 -841 0 c-802 0 -842 -1 -857 -18 -10 -10
-17 -33 -17 -50 l0 -32 -85 0 -85 0 0 240 0 240 243 2 c133 1 221 3 195 5
l-48 4 0 159 0 159 93 4 c50 1 -134 4 -410 5 l-503 2 0 343 0 342 -45 215 -44
215 -131 290 c-73 160 -134 296 -137 303 -4 9 -67 12 -269 12 l-264 0 -9 -22z
m709 -1757 l225 -280 108 0 107 -1 0 -35 0 -35 -50 0 -50 0 0 -300 0 -300 225
0 225 0 0 -50 0 -49 93 -3 92 -3 3 -32 3 -33 -135 0 -136 0 0 -90 0 -90 -95 0
-95 0 0 90 0 90 -220 0 -220 0 0 -175 c0 -110 4 -175 10 -175 6 0 10 -16 10
-35 0 -19 -4 -35 -10 -35 -6 0 -10 -63 -10 -170 l0 -170 175 0 175 0 0 -80 c0
-64 -3 -80 -15 -80 -12 0 -15 -19 -15 -115 0 -98 2 -114 15 -109 13 5 15 -7
15 -75 l0 -81 -117 0 -118 0 0 -235 0 -235 118 0 117 0 0 -115 0 -115 -164 0
-165 0 -3 -32 c-3 -29 -6 -33 -33 -33 -27 0 -30 4 -33 33 l-3 32 -244 0 -245
0 10 -25 c10 -27 5 -51 -18 -77 -17 -21 -67 -24 -79 -5 -4 6 -10 -141 -13
-328 l-5 -340 -470 0 -470 0 -3 58 c-3 53 -5 57 -27 57 -21 0 -25 5 -25 30 l0
30 105 0 105 0 0 443 0 442 -52 0 -53 0 0 60 0 60 53 3 52 3 0 40 c0 35 3 39
25 39 24 0 25 -2 25 -75 l0 -75 208 0 207 0 103 103 102 102 0 95 0 95 -97 97
-98 98 -212 0 -213 0 0 -86 c0 -83 -1 -85 -22 -82 -20 3 -24 11 -28 53 -5 49
-6 50 -64 80 -55 28 -68 30 -161 30 -94 0 -105 -2 -168 -33 l-67 -33 0 -50 0
-49 -210 0 -210 0 -2 83 c-1 45 -3 65 -5 45 -2 -21 -10 -38 -16 -38 -7 -1 -80
-2 -164 -3 l-152 -2 -4 30 c-2 16 -5 -25 -5 -92 l-2 -122 -57 -3 -58 -3 -3
-167 -2 -168 75 0 75 0 0 -75 0 -75 160 0 160 0 0 175 0 175 210 0 210 0 0
-25 c0 -24 -2 -25 -65 -25 l-65 0 0 -270 0 -270 -145 0 -145 0 0 -145 0 -145
-655 0 -655 0 2 533 3 532 33 3 c29 3 32 1 32 -25 0 -20 16 -43 62 -90 l62
-63 86 0 85 0 142 142 143 143 0 147 0 148 -85 0 -85 0 0 30 c0 27 3 30 33 30
30 1 38 10 122 130 l89 130 238 0 238 0 0 50 0 50 55 0 55 0 0 235 0 235 115
0 115 0 0 205 0 205 -65 0 -65 0 0 215 0 215 64 0 c59 0 65 2 68 23 2 18 9 22
38 22 29 0 36 -4 38 -22 l3 -23 445 0 444 0 222 279 223 280 180 0 181 1 224
-279z m-2320 -316 l0 -35 -480 0 -480 0 0 -350 0 -349 58 -3 57 -3 0 -65 0
-65 -332 -3 -333 -2 0 120 0 120 -30 0 c-16 0 -30 4 -30 9 0 15 88 21 311 21
l219 0 0 320 0 320 520 0 520 0 0 -35z m40 -535 l0 -330 -425 0 -425 0 0 330
0 330 425 0 425 0 0 -330z m4380 -500 l0 -480 -475 0 -475 0 0 165 0 165 -80
0 c-73 0 -80 -2 -80 -20 0 -19 -7 -20 -97 -20 l-98 0 0 -117 0 -118 -65 0 -65
0 0 118 0 117 -207 0 -208 0 0 35 0 35 295 0 295 0 0 120 0 121 73 -3 72 -3 3
-47 3 -48 80 0 79 0 0 230 0 230 475 0 475 0 0 -480z m-240 -645 l0 -85 35 0
c31 0 35 -3 35 -25 0 -24 -2 -25 -65 -25 l-65 0 0 -145 0 -145 385 0 385 0 0
-295 0 -295 60 0 60 0 0 -30 0 -30 -60 0 -60 0 0 -235 0 -235 -120 0 -120 0 0
-65 c0 -63 -1 -65 -25 -65 -21 0 -25 -5 -25 -30 0 -27 -3 -30 -30 -30 l-30 0
0 -105 0 -105 -455 0 -455 0 0 206 c0 134 3 203 10 199 6 -4 10 -67 10 -156
l0 -149 120 0 120 0 0 265 0 265 -45 0 c-45 0 -45 0 -45 35 l0 35 -345 0 -345
0 0 260 0 260 -65 0 -66 0 3 153 3 152 75 6 c64 4 90 13 180 57 l105 52 238 0
237 0 0 135 0 135 -55 0 -55 0 0 60 0 60 235 0 235 0 0 -85z m-1762 -1402 l3
-83 204 0 205 0 0 -25 0 -25 260 0 260 0 0 -416 c0 -374 2 -416 16 -410 24 9
54 -12 54 -39 l0 -24 148 -3 147 -3 0 -305 0 -305 -255 -5 -255 -5 -79 -57
c-50 -37 -88 -58 -106 -58 -36 0 -78 -22 -172 -86 -56 -39 -87 -54 -110 -54
-32 1 -226 43 -231 51 -1 2 -7 13 -13 24 -8 15 -25 21 -65 25 -73 8 -243 95
-282 144 l-28 36 -124 0 -125 0 0 325 0 325 -145 0 -145 0 0 -60 0 -60 -95 0
-95 0 0 180 0 180 234 0 c223 0 234 1 229 19 -6 25 25 54 54 48 20 -4 23 0 23
24 0 28 1 29 55 29 l55 0 0 168 0 168 73 72 72 72 83 0 82 0 0 103 c0 57 3
107 7 111 4 4 19 6 33 4 24 -3 25 -6 28 -85z m-1858 -353 l0 -30 -95 0 -95 0
0 -175 0 -175 400 0 400 0 0 -180 0 -180 -100 0 c-60 0 -100 4 -100 10 0 6
-102 10 -285 10 -183 0 -285 -4 -285 -10 0 -6 -65 -10 -175 -10 l-175 0 0 -60
0 -60 -65 0 -65 0 0 60 0 60 -95 0 -95 0 0 150 0 150 -60 0 -60 0 0 235 0 235
475 0 475 0 0 -30z m3320 -72 c0 -4 -49 -8 -110 -8 -60 0 -110 3 -110 8 0 4
50 7 110 8 61 0 110 -3 110 -8z m-4603 -240 l53 -52 0 -90 0 -90 -47 -48 -47
-48 -90 0 -90 0 -48 47 -48 47 0 95 0 95 47 48 47 48 85 0 85 0 53 -52z m2434
-1147 c30 -10 212 -91 405 -180 268 -123 361 -161 391 -161 22 0 90 11 151 25
90 20 138 25 252 25 l141 0 202 116 c111 64 216 125 234 136 l32 19 37 -58
c20 -32 42 -61 49 -66 8 -4 27 -30 44 -57 43 -70 41 -108 -8 -170 -25 -32 -41
-64 -45 -92 -5 -32 -18 -55 -52 -90 -43 -46 -48 -48 -100 -48 l-54 0 0 -33 c0
-28 -27 -67 -170 -248 -138 -173 -170 -220 -170 -245 0 -26 -18 -52 -95 -138
-52 -59 -95 -113 -95 -121 0 -8 -2 -15 -4 -15 -2 0 -62 -18 -132 -40 -71 -22
-139 -40 -153 -40 -15 0 -43 17 -73 46 -27 25 -55 43 -62 41 -8 -3 -24 5 -37
19 -12 13 -28 24 -35 24 -20 0 -44 41 -44 77 0 26 -16 51 -85 132 -79 93 -85
103 -85 145 0 43 -3 47 -75 112 -41 37 -75 72 -75 78 0 6 -70 81 -155 166
-123 123 -155 160 -155 182 0 21 -16 41 -70 89 -38 35 -70 71 -70 81 0 10 16
84 36 163 41 163 36 157 125 126z"/>
<path d="M3310 6420 l0 -40 45 0 45 0 0 40 0 40 -45 0 -45 0 0 -40z m80 0 c0
-28 -3 -30 -35 -30 -32 0 -35 2 -35 30 0 28 3 30 35 30 32 0 35 -2 35 -30z"/>
<path d="M2610 5605 l-125 -125 65 0 66 0 62 63 63 64 -3 62 -3 61 -125 -125z
m63 -57 c-56 -57 -59 -58 -113 -58 l-55 0 110 110 110 111 3 -52 c3 -52 2 -53
-55 -111z"/>
<path d="M4192 5293 l1 -48 4 43 c4 40 5 42 38 42 33 0 34 -2 38 -42 l4 -43 1
48 2 47 -45 0 -45 0 2 -47z"/>
<path d="M3053 5185 c0 -38 2 -53 4 -32 2 20 2 52 0 70 -2 17 -4 1 -4 -38z"/>
<path d="M5085 4929 c-11 -16 -1 -19 13 -3 7 8 8 14 3 14 -5 0 -13 -5 -16 -11z"/>
<path d="M5142 4926 c7 -8 15 -12 17 -11 5 6 -10 25 -20 25 -5 0 -4 -6 3 -14z"/>
<path d="M5082 4880 c9 -14 23 -26 32 -28 19 -4 46 15 46 32 0 6 -5 3 -11 -6
-14 -25 -43 -22 -64 5 -17 22 -17 22 -3 -3z"/>
<path d="M2350 6950 l0 -50 53 2 52 2 -47 3 -48 4 0 39 0 39 48 4 47 3 -52 2
-53 2 0 -50z"/>
<path d="M3050 7325 l0 -45 50 0 50 0 0 45 0 45 -50 0 -50 0 0 -45z m90 0 c0
-34 -1 -35 -40 -35 -39 0 -40 1 -40 35 0 34 1 35 40 35 39 0 40 -1 40 -35z"/>
<path d="M2637 7153 l2 -98 265 -3 266 -2 0 100 0 100 -267 0 -268 0 2 -97z"/>
<path d="M2614 7150 c0 -52 1 -74 3 -47 2 26 2 68 0 95 -2 26 -3 4 -3 -48z"/>
<path d="M2772 6983 l-2 -53 130 0 130 0 -2 53 -2 52 -3 -47 -4 -48 -119 0
-119 0 -4 48 -3 47 -2 -52z"/>
<path d="M7373 6775 c0 -33 2 -45 4 -27 2 18 2 45 0 60 -2 15 -4 0 -4 -33z"/>
<path d="M7593 6775 c0 -33 2 -45 4 -27 2 18 2 45 0 60 -2 15 -4 0 -4 -33z"/>
<path d="M6620 6655 l0 -65 160 0 160 0 0 65 0 65 -160 0 -160 0 0 -65z m310
0 l0 -55 -150 0 -150 0 0 55 0 55 150 0 150 0 0 -55z"/>
<path d="M7372 6593 l2 -108 3 102 4 102 47 4 47 3 -52 2 -53 2 2 -107z"/>
<path d="M6310 6455 l0 -75 53 2 52 2 -47 3 -48 4 0 64 0 64 48 4 47 3 -52 2
-53 2 0 -75z"/>
<path d="M6310 6335 c0 -24 3 -25 53 -23 l52 2 -47 3 c-33 3 -48 9 -48 18 0 9
15 15 48 18 l47 3 -52 2 c-50 2 -53 1 -53 -23z"/>
<path d="M7042 6098 l1 -43 4 38 c4 35 6 37 38 37 32 0 34 -2 38 -37 l4 -38 1
43 2 42 -45 0 -45 0 2 -42z"/>
<path d="M6312 5533 l2 -108 3 102 4 102 52 4 52 3 -57 2 -58 2 2 -107z"/>
<path d="M6310 5388 c0 -15 8 -18 53 -16 l52 1 -45 4 c-24 3 -48 10 -52 16 -5
8 -8 6 -8 -5z"/>
<path d="M6842 4903 l-2 -53 180 0 180 0 -2 53 -2 52 -3 -47 -4 -48 -169 0
-169 0 -4 48 -3 47 -2 -52z"/>
<path d="M7158 4823 c18 -3 32 -10 32 -18 0 -8 -14 -15 -32 -18 -32 -4 -32 -4
5 -5 33 -2 37 0 37 23 0 23 -4 25 -37 23 -37 -1 -37 -1 -5 -5z"/>
<path d="M7850 4475 l0 -55 45 0 45 0 0 55 0 55 -45 0 -45 0 0 -55z m80 0 c0
-45 0 -45 -35 -45 -35 0 -35 0 -35 45 0 45 0 45 35 45 35 0 35 0 35 -45z"/>
<path d="M7850 4380 c0 -14 6 -20 23 -19 16 1 18 2 5 6 -25 6 -22 21 5 26 19
4 18 4 -5 6 -22 1 -28 -4 -28 -19z"/>
<path d="M5731 4558 c-1 -17 15 -18 194 -18 179 0 195 1 194 18 0 10 -3 12 -6
5 -3 -10 -51 -13 -188 -13 -137 0 -185 3 -188 13 -3 7 -6 5 -6 -5z"/>
<path d="M5260 3990 l0 -50 45 0 45 0 0 50 0 50 -45 0 -45 0 0 -50z m80 0 c0
-39 -1 -40 -35 -40 -34 0 -35 1 -35 40 0 39 1 40 35 40 34 0 35 -1 35 -40z"/>
<path d="M5186 3974 c-8 -21 1 -34 25 -34 24 0 37 29 18 41 -21 13 -36 11 -43
-7z m39 -3 c7 -12 -12 -24 -25 -16 -11 7 -4 25 10 25 5 0 11 -4 15 -9z"/>
<path d="M6671 3673 c-1 -17 5 -23 19 -23 13 0 20 7 20 20 0 11 -4 20 -10 20
-5 0 -7 -7 -4 -15 4 -8 1 -15 -4 -15 -6 0 -13 8 -15 18 -4 13 -5 11 -6 -5z"/>
<path d="M3250 3530 l0 -50 45 0 45 0 0 50 0 50 -45 0 -45 0 0 -50z m80 0 c0
-39 -1 -40 -35 -40 -34 0 -35 1 -35 40 0 39 1 40 35 40 34 0 35 -1 35 -40z"/>
<path d="M2332 3997 l-42 -43 1 -79 c1 -44 4 -70 6 -57 7 34 33 9 33 -31 l0
-30 -22 19 c-13 10 -3 -3 22 -29 l44 -47 80 0 80 0 43 42 43 42 0 86 0 86 -43
42 -43 42 -80 0 -80 0 -42 -43z m152 6 l31 -28 -24 28 -24 27 28 0 c41 0 75
-36 75 -79 0 -22 8 -43 22 -58 l21 -23 -22 -24 c-17 -18 -21 -33 -18 -57 l4
-34 1 36 c1 20 9 42 17 49 13 11 15 8 15 -21 0 -48 -61 -109 -109 -109 l-34 0
19 23 c17 19 16 19 -9 -2 l-27 -25 -16 22 c-8 12 -20 22 -26 22 -6 0 -3 -9 7
-20 18 -20 17 -20 -12 -20 -41 0 -68 32 -64 77 2 25 -3 41 -20 59 l-22 24 22
24 c17 18 21 33 18 57 l-4 34 -1 -36 c-1 -20 -9 -42 -17 -49 -13 -11 -15 -8
-15 21 0 25 9 43 37 71 48 49 100 53 147 11z m126 -85 c0 -26 -2 -29 -15 -18
-8 7 -15 26 -15 42 0 26 2 29 15 18 8 -7 15 -26 15 -42z"/>
<path d="M2419 4003 c-13 -16 -12 -17 4 -4 9 7 17 15 17 17 0 8 -8 3 -21 -13z"/>
<path d="M5322 2088 c7 -13 26 -38 42 -55 l30 -33 560 1 561 0 43 55 43 54
-646 0 -645 0 12 -22z"/>
<path d="M8114 7079 c-3 -6 -1 -16 5 -22 8 -8 11 -5 11 11 0 24 -5 28 -16 11z"/>
<path d="M1980 6480 l0 -110 53 2 52 2 -47 3 -48 4 0 99 0 99 48 4 47 3 -52 2
-53 2 0 -110z"/>
<path d="M8072 6378 l2 -103 3 98 c3 88 6 97 23 97 17 0 20 -9 23 -92 l3 -93
2 98 2 97 -30 0 -30 0 2 -102z"/>
<path d="M7963 6073 c46 -4 47 -5 47 -38 0 -33 -1 -34 -47 -38 l-48 -3 53 -2
52 -2 0 45 0 45 -52 -2 -53 -2 48 -3z"/>
<path d="M8040 6035 l0 -45 45 0 45 0 0 45 0 45 -45 0 -45 0 0 -45z m80 0 c0
-33 -2 -35 -35 -35 -33 0 -35 2 -35 35 0 33 2 35 35 35 33 0 35 -2 35 -35z"/>
<path d="M8583 4125 c0 -22 2 -30 4 -17 2 12 2 30 0 40 -3 9 -5 -1 -4 -23z"/>
<path d="M8628 4083 c17 -2 47 -2 65 0 17 2 3 4 -33 4 -36 0 -50 -2 -32 -4z"/>
<path d="M7500 3340 l0 -50 50 0 50 0 0 50 0 50 -50 0 -50 0 0 -50z m90 0 l0
-40 -40 0 -40 0 0 40 0 40 40 0 40 0 0 -40z"/>
<path d="M7568 3263 c12 -2 22 -8 22 -13 0 -5 -10 -11 -22 -13 -20 -4 -19 -4
5 -6 21 -1 27 4 27 19 0 15 -6 20 -27 19 -24 -2 -25 -2 -5 -6z"/>
<path d="M3164 2075 c1 -19 0 -35 -4 -35 -3 0 -6 -9 -7 -20 -2 -20 4 -20 863
-20 l864 0 -42 54 -43 55 -817 0 -817 1 3 -35z"/>
<path d="M7210 2055 l-54 -55 857 0 c652 0 856 3 851 12 -7 10 -10 33 -13 81
-1 16 -46 17 -794 17 l-793 0 -54 -55z"/>
</g>
</svg>
